<?xml version="1.0" standalone="no"?>
<!DOCTYPE svg PUBLIC "-//W3C//DTD SVG 20010904//EN"
 "http://www.w3.org/TR/2001/REC-SVG-20010904/DTD/svg10.dtd">
<svg version="1.0" xmlns="http://www.w3.org/2000/svg"
 width="458.000000pt" height="291.000000pt" viewBox="0 0 458.000000 291.000000"
 preserveAspectRatio="xMidYMid meet">
<metadata>
Created by potrace 1.15, written by Peter Selinger 2001-2017
</metadata>
<g transform="translate(0.000000,291.000000) scale(0.100000,-0.100000)"
stroke="none">
<path d="M0 1455 l0 -1455 2290 0 2290 0 0 1455 0 1455 -2290 0 -2290 0 0
-1455z m2610 1135 c39 -62 9 -144 -100 -268 l-73 -84 69 7 c38 4 69 8 70 9
143 207 222 308 235 300 22 -13 -3 -68 -81 -182 l-81 -117 51 -6 c28 -4 53 -9
55 -10 2 -2 -18 -32 -43 -67 l-46 -62 -47 6 -47 6 -21 -40 c-12 -23 -21 -59
-21 -82 0 -35 -4 -43 -32 -60 -18 -11 -40 -19 -48 -17 -23 4 -16 77 13 138
l25 51 -61 -7 c-115 -12 -115 -12 -168 -89 -68 -98 -76 -106 -93 -100 -32 12
-29 45 8 98 l36 51 -33 8 c-38 10 -58 32 -50 55 10 28 46 63 63 60 8 -1 43 4
78 11 59 13 67 19 129 85 93 100 155 185 151 210 -5 32 -57 32 -152 1 -111
-37 -216 -87 -193 -92 30 -8 19 -18 -62 -57 -98 -48 -116 -45 -108 20 6 61 31
92 103 131 58 32 211 87 289 103 62 13 174 7 185 -10z m-2021 -26 c12 -15 21
-35 21 -45 0 -11 -35 -77 -77 -147 -128 -213 -181 -342 -154 -381 5 -8 16 -11
24 -8 47 18 257 329 257 380 0 33 12 58 52 110 36 45 58 48 58 7 0 -65 -92
-239 -225 -425 -87 -122 -138 -175 -169 -175 -27 0 -72 47 -82 86 -20 80 26
215 132 390 59 98 62 104 39 104 -24 0 -145 -76 -205 -130 l-35 -31 41 4 c44
5 82 -7 54 -17 -114 -39 -176 -56 -187 -52 -17 7 -9 84 13 127 29 58 173 156
297 204 84 32 120 32 146 -1z m976 -124 c3 -5 -6 -26 -21 -45 -27 -36 -27 -36
-6 -42 12 -3 22 -8 22 -11 0 -3 -14 -27 -31 -54 -28 -43 -35 -48 -69 -48 -36
0 -39 -2 -74 -69 -20 -39 -37 -87 -39 -108 -2 -33 1 -38 22 -41 26 -4 131 62
131 83 0 25 65 108 114 145 95 71 186 77 186 13 0 -55 -53 -108 -161 -163 -50
-26 -56 -32 -51 -55 11 -58 70 -56 155 6 31 21 58 39 61 39 36 0 -87 -130
-146 -155 -43 -17 -81 -19 -109 -5 -22 12 -49 61 -49 90 0 27 -12 25 -41 -6
-37 -40 -112 -92 -142 -99 -59 -15 -83 46 -52 134 l15 42 -62 -55 c-64 -58
-147 -106 -183 -106 -32 0 -88 41 -106 77 l-16 32 -24 -26 c-41 -44 -101 -83
-129 -83 -37 0 -68 37 -79 94 -15 81 10 145 86 218 45 43 84 56 102 34 17 -20
-7 -64 -70 -134 -53 -58 -62 -94 -29 -112 24 -13 52 -6 97 24 38 26 233 234
233 249 0 18 32 47 52 47 21 0 21 0 38 -93 16 -88 -1 -139 -67 -197 l-46 -40
30 0 c55 0 173 101 239 204 l18 29 -47 -7 c-56 -9 -60 1 -21 57 27 41 57 57
106 57 23 0 40 11 72 45 41 43 77 57 91 35z m2280 -151 c5 -15 2 -25 -8 -31
-13 -7 -14 -14 -6 -37 9 -26 6 -36 -26 -84 -42 -63 -44 -100 -7 -105 28 -4 94
39 123 80 19 25 19 29 5 44 -20 20 -20 27 4 73 19 39 72 91 92 91 6 0 8 -10 6
-23 -4 -23 -4 -23 60 -15 73 10 92 2 92 -43 0 -19 -12 -42 -34 -66 -37 -42
-66 -93 -66 -118 0 -23 46 -18 88 10 72 49 72 19 0 -52 -88 -86 -135 -99 -158
-42 -17 39 -6 85 34 149 19 30 33 56 31 58 -1 2 -19 0 -39 -4 -28 -5 -44 -16
-65 -48 -32 -44 -150 -163 -191 -190 -34 -22 -67 -20 -81 5 -10 20 -9 40 7
104 6 22 -1 18 -47 -30 -30 -31 -66 -63 -81 -71 -25 -13 -30 -12 -49 7 -11 11
-27 36 -35 55 -8 19 -17 34 -20 34 -3 0 -37 -26 -75 -57 -45 -37 -87 -85 -120
-135 -58 -88 -138 -168 -169 -168 -53 0 6 118 102 203 54 47 78 77 99 124 16
35 29 65 29 69 0 3 -29 -21 -65 -55 -97 -90 -136 -94 -174 -19 l-23 48 -25
-20 c-14 -11 -37 -20 -52 -20 -15 0 -38 -12 -54 -29 -62 -64 -118 -61 -164 8
-46 68 -24 158 59 238 80 78 189 99 193 38 1 -5 7 -23 15 -39 13 -25 12 -35
-9 -93 -12 -36 -20 -68 -17 -70 11 -11 55 28 72 62 23 49 112 127 185 164 69
35 106 39 116 15 10 -26 -7 -44 -77 -81 -131 -70 -218 -193 -137 -193 24 0
102 68 184 163 41 46 78 61 89 34 5 -14 -11 -63 -50 -150 -15 -32 -21 -55 -13
-50 62 39 87 61 92 81 14 55 158 166 261 201 64 21 88 16 99 -20z m-1327 -592
c5 -23 -46 -137 -75 -167 -16 -17 -26 -21 -33 -14 -8 8 0 31 26 80 l36 69 -35
-33 c-19 -18 -57 -66 -85 -106 l-50 -72 84 -18 c46 -10 84 -22 84 -25 0 -3 -9
-17 -19 -31 l-19 -24 -74 17 c-83 20 -131 22 -159 7 -26 -15 -42 -4 -29 20 18
33 41 50 69 50 23 0 36 13 84 83 61 90 160 191 180 184 6 -2 13 -11 15 -20z
m-915 -9 c12 -18 -10 -104 -50 -196 -22 -50 -22 -52 -4 -42 11 5 22 19 26 29
10 33 73 81 105 81 25 0 30 -5 35 -34 4 -19 2 -43 -4 -54 -30 -56 16 -27 81
51 28 34 56 62 62 62 13 0 27 -63 21 -91 -3 -11 -17 -33 -31 -47 -19 -19 -22
-27 -11 -27 16 0 57 39 96 90 42 55 121 75 121 30 0 -20 -58 -75 -90 -85 -24
-8 -24 -38 1 -43 8 -1 32 9 52 22 47 32 51 10 6 -28 -55 -47 -102 -47 -119 0
l-11 27 -22 -21 c-47 -44 -104 -46 -126 -3 -10 17 -15 18 -40 10 -17 -6 -35
-17 -42 -25 -19 -23 -66 -18 -80 9 -6 12 -13 23 -14 25 -1 1 -14 -3 -29 -9
-14 -7 -44 -39 -66 -73 -48 -75 -86 -116 -105 -116 -42 0 8 96 75 146 27 20
49 50 71 98 50 109 72 196 49 196 -21 0 -81 -76 -100 -128 -22 -59 -20 -73 6
-51 16 13 16 12 7 -6 -6 -11 -23 -31 -37 -44 -20 -19 -29 -22 -38 -13 -17 17
5 123 37 178 49 83 140 128 168 82z m1359 -139 c10 -46 3 -71 -28 -102 -32
-32 -14 -36 27 -6 41 29 36 7 -6 -30 -47 -41 -87 -45 -117 -10 -16 19 -17 19
-54 -6 -47 -32 -51 -31 -72 5 l-17 29 -25 -24 c-38 -35 -64 -36 -68 -2 l-3 28
-31 -26 c-29 -24 -32 -25 -49 -9 -26 24 -24 62 6 106 30 44 55 60 75 48 12 -7
8 -17 -23 -48 -35 -35 -47 -62 -29 -62 4 0 37 29 72 65 35 36 68 65 72 65 17
0 7 -35 -23 -82 -17 -27 -29 -51 -26 -54 13 -14 49 11 67 46 21 41 67 83 81
74 16 -10 9 -33 -21 -67 -31 -36 -37 -52 -20 -62 23 -14 115 63 165 139 22 34
37 29 47 -15z"/>
<path d="M3690 2189 c-92 -49 -143 -99 -138 -137 5 -41 30 -37 87 14 53 48
148 164 134 164 -4 0 -42 -18 -83 -41z"/>
<path d="M2922 2184 c-65 -43 -93 -86 -90 -134 3 -30 7 -35 30 -38 47 -6 71
20 72 75 1 27 10 66 22 91 12 23 21 42 20 42 -1 0 -25 -16 -54 -36z"/>
</g>
</svg>
